<svg xmlns="http://www.w3.org/2000/svg" xmlns:xlink="http://www.w3.org/1999/xlink" width="500" zoomAndPan="magnify" viewBox="0 0 375 374.999991" height="500" preserveAspectRatio="xMidYMid meet" version="1.0"><defs><g/></defs><rect x="-37.5" width="450" fill="#ffffff" y="-37.499999" height="449.999989" fill-opacity="1"/><rect x="-37.5" width="450" fill="#e6e6e6" y="-37.499999" height="449.999989" fill-opacity="1"/><g fill="#ffffff" fill-opacity="1"><g transform="translate(29.844517, 195.17092)"><g><path d="M 25.25 -38.78125 L 25.25 -31.03125 L 11.65625 -31.03125 L 11.65625 -23.3125 L 24.21875 -23.3125 L 24.21875 -15.5625 L 11.65625 -15.5625 L 11.65625 0 L 2.828125 0 L 2.828125 -38.78125 Z M 25.25 -38.78125 "/></g></g></g><g fill="#ffffff" fill-opacity="1"><g transform="translate(72.020301, 195.17092)"><g><path d="M 11.65625 -38.78125 L 11.65625 0 L 2.828125 0 L 2.828125 -38.78125 Z M 11.65625 -38.78125 "/></g></g></g><g fill="#ffffff" fill-opacity="1"><g transform="translate(102.019069, 195.17092)"><g><path d="M 0.375 -31.03125 L 0.375 -38.78125 L 27.640625 -38.78125 L 27.640625 -31.03125 L 18.4375 -31.03125 L 18.4375 0 L 9.59375 0 L 9.59375 -31.03125 Z M 0.375 -31.03125 "/></g></g></g><g fill="#ff3131" fill-opacity="1"><g transform="translate(145.567165, 195.17092)"><g><path d="M 2.828125 -38.78125 L 16.96875 -38.78125 C 20.914062 -38.78125 24.113281 -37.757812 26.5625 -35.71875 C 29.007812 -33.6875 30.234375 -30.726562 30.234375 -26.84375 C 30.234375 -22.957031 28.992188 -19.910156 26.515625 -17.703125 C 24.035156 -15.492188 20.851562 -14.390625 16.96875 -14.390625 L 11.65625 -14.390625 L 11.65625 0 L 2.828125 0 Z M 11.65625 -21.4375 L 14.15625 -21.4375 C 16.125 -21.4375 17.742188 -21.835938 19.015625 -22.640625 C 20.285156 -23.441406 20.921875 -24.75 20.921875 -26.5625 C 20.921875 -28.414062 20.285156 -29.738281 19.015625 -30.53125 C 17.742188 -31.332031 16.125 -31.734375 14.15625 -31.734375 L 11.65625 -31.734375 Z M 11.65625 -21.4375 "/></g></g></g><g fill="#ff3131" fill-opacity="1"><g transform="translate(192.39749, 195.17092)"><g><path d="M 32.625 -38.78125 L 32.625 -13.78125 C 32.625 -9.007812 31.335938 -5.398438 28.765625 -2.953125 C 26.203125 -0.515625 22.441406 0.703125 17.484375 0.703125 C 12.535156 0.703125 8.773438 -0.515625 6.203125 -2.953125 C 3.628906 -5.398438 2.34375 -9.007812 2.34375 -13.78125 L 2.34375 -38.78125 L 11.1875 -38.78125 L 11.1875 -16.359375 C 11.1875 -13.222656 11.679688 -11.046875 12.671875 -9.828125 C 13.660156 -8.609375 15.265625 -8 17.484375 -8 C 19.710938 -8 21.320312 -8.609375 22.3125 -9.828125 C 23.300781 -11.046875 23.796875 -13.222656 23.796875 -16.359375 L 23.796875 -38.78125 Z M 32.625 -38.78125 "/></g></g></g><g fill="#ff3131" fill-opacity="1"><g transform="translate(242.895028, 195.17092)"><g><path d="M 11.65625 -38.78125 L 11.65625 -7.75 L 25.015625 -7.75 L 25.015625 0 L 2.828125 0 L 2.828125 -38.78125 Z M 11.65625 -38.78125 "/></g></g></g><g fill="#ff3131" fill-opacity="1"><g transform="translate(284.976793, 195.17092)"><g><path d="M 17.109375 -39.5 C 19.210938 -39.5 21.265625 -39.191406 23.265625 -38.578125 C 25.273438 -37.960938 26.765625 -37.359375 27.734375 -36.765625 L 29.15625 -35.828125 L 25.578125 -28.78125 C 25.296875 -28.96875 24.90625 -29.207031 24.40625 -29.5 C 23.90625 -29.800781 22.960938 -30.203125 21.578125 -30.703125 C 20.203125 -31.203125 18.914062 -31.453125 17.71875 -31.453125 C 16.25 -31.453125 15.113281 -31.140625 14.3125 -30.515625 C 13.519531 -29.890625 13.125 -29.039062 13.125 -27.96875 C 13.125 -27.4375 13.3125 -26.941406 13.6875 -26.484375 C 14.0625 -26.035156 14.703125 -25.550781 15.609375 -25.03125 C 16.515625 -24.519531 17.3125 -24.101562 18 -23.78125 C 18.695312 -23.46875 19.765625 -23 21.203125 -22.375 C 23.710938 -21.3125 25.851562 -19.863281 27.625 -18.03125 C 29.394531 -16.195312 30.28125 -14.117188 30.28125 -11.796875 C 30.28125 -9.578125 29.878906 -7.632812 29.078125 -5.96875 C 28.273438 -4.3125 27.175781 -3.007812 25.78125 -2.0625 C 24.394531 -1.125 22.851562 -0.429688 21.15625 0.015625 C 19.46875 0.472656 17.632812 0.703125 15.65625 0.703125 C 13.96875 0.703125 12.304688 0.53125 10.671875 0.1875 C 9.046875 -0.15625 7.679688 -0.582031 6.578125 -1.09375 C 5.484375 -1.613281 4.492188 -2.125 3.609375 -2.625 C 2.734375 -3.132812 2.09375 -3.5625 1.6875 -3.90625 L 1.078125 -4.421875 L 5.5 -11.84375 C 5.875 -11.53125 6.390625 -11.128906 7.046875 -10.640625 C 7.710938 -10.160156 8.882812 -9.507812 10.5625 -8.6875 C 12.238281 -7.875 13.71875 -7.46875 15 -7.46875 C 18.726562 -7.46875 20.59375 -8.738281 20.59375 -11.28125 C 20.59375 -11.8125 20.457031 -12.304688 20.1875 -12.765625 C 19.925781 -13.222656 19.457031 -13.675781 18.78125 -14.125 C 18.101562 -14.582031 17.503906 -14.941406 16.984375 -15.203125 C 16.472656 -15.472656 15.628906 -15.878906 14.453125 -16.421875 C 13.273438 -16.972656 12.40625 -17.390625 11.84375 -17.671875 C 9.5 -18.835938 7.679688 -20.289062 6.390625 -22.03125 C 5.109375 -23.769531 4.46875 -25.640625 4.46875 -27.640625 C 4.46875 -31.117188 5.75 -33.960938 8.3125 -36.171875 C 10.882812 -38.390625 13.816406 -39.5 17.109375 -39.5 Z M 17.109375 -39.5 "/></g></g></g><g fill="#ff3131" fill-opacity="1"><g transform="translate(332.089209, 195.17092)"><g><path d="M 25.015625 -38.78125 L 25.015625 -31.03125 L 11.65625 -31.03125 L 11.65625 -23.3125 L 24.453125 -23.3125 L 24.453125 -15.5625 L 11.65625 -15.5625 L 11.65625 -7.75 L 25.015625 -7.75 L 25.015625 0 L 2.828125 0 L 2.828125 -38.78125 Z M 25.015625 -38.78125 "/></g></g></g><g fill="#ffffff" fill-opacity="1"><g transform="translate(150.26971, 219.669859)"><g><path d="M 2.375 -6.09375 L 2.375 -4.1875 L 5.671875 -4.1875 L 5.671875 -3.046875 L 2.375 -3.046875 L 2.375 0 L 0.9375 0 L 0.9375 -7.21875 L 6.046875 -7.21875 L 6.046875 -6.09375 Z M 2.375 -6.09375 "/></g></g></g><g fill="#ffffff" fill-opacity="1"><g transform="translate(161.732359, 219.669859)"><g><path d="M 2.375 0 L 0.9375 0 L 0.9375 -7.21875 L 2.375 -7.21875 Z M 2.375 0 "/></g></g></g><g fill="#ffffff" fill-opacity="1"><g transform="translate(170.048627, 219.669859)"><g><path d="M 6.578125 -6.09375 L 4.140625 -6.09375 L 4.140625 0 L 2.6875 0 L 2.6875 -6.09375 L 0.234375 -6.09375 L 0.234375 -7.21875 L 6.578125 -7.21875 Z M 6.578125 -6.09375 "/></g></g></g><g fill="#ffffff" fill-opacity="1"><g transform="translate(181.824868, 219.669859)"><g><path d="M 7.28125 0 L 5.296875 0 L 2.328125 -5.484375 C 2.359375 -4.828125 2.375 -4.085938 2.375 -3.265625 L 2.375 0 L 0.9375 0 L 0.9375 -7.21875 L 2.84375 -7.21875 L 5.890625 -1.640625 C 5.847656 -2.285156 5.828125 -3.039062 5.828125 -3.90625 L 5.828125 -7.21875 L 7.265625 -7.21875 Z M 7.28125 0 "/></g></g></g><g fill="#ffffff" fill-opacity="1"><g transform="translate(195.033186, 219.669859)"><g><path d="M 6.140625 -1.140625 L 6.140625 0 L 0.9375 0 L 0.9375 -7.21875 L 6.046875 -7.21875 L 6.046875 -6.09375 L 2.375 -6.09375 L 2.375 -4.1875 L 5.78125 -4.1875 L 5.78125 -3.046875 L 2.375 -3.046875 L 2.375 -1.140625 Z M 6.140625 -1.140625 "/></g></g></g><g fill="#ffffff" fill-opacity="1"><g transform="translate(206.736251, 219.669859)"><g><path d="M 3.328125 -7.375 C 4.148438 -7.375 4.78125 -7.164062 5.21875 -6.75 C 5.65625 -6.34375 5.914062 -5.789062 6 -5.09375 L 4.515625 -5.09375 C 4.472656 -5.46875 4.347656 -5.757812 4.140625 -5.96875 C 3.929688 -6.1875 3.644531 -6.296875 3.28125 -6.296875 C 2.976562 -6.296875 2.734375 -6.222656 2.546875 -6.078125 C 2.359375 -5.929688 2.265625 -5.71875 2.265625 -5.4375 C 2.265625 -5.125 2.375 -4.878906 2.59375 -4.703125 C 2.820312 -4.535156 3.222656 -4.382812 3.796875 -4.25 C 4.585938 -4.070312 5.171875 -3.796875 5.546875 -3.421875 C 5.921875 -3.054688 6.109375 -2.578125 6.109375 -1.984375 C 6.109375 -1.328125 5.847656 -0.804688 5.328125 -0.421875 C 4.804688 -0.046875 4.175781 0.140625 3.4375 0.140625 C 2.550781 0.140625 1.847656 -0.0507812 1.328125 -0.4375 C 0.804688 -0.820312 0.507812 -1.390625 0.4375 -2.140625 L 1.921875 -2.140625 C 1.992188 -1.753906 2.164062 -1.457031 2.4375 -1.25 C 2.707031 -1.039062 3.03125 -0.9375 3.40625 -0.9375 C 3.75 -0.9375 4.03125 -1.019531 4.25 -1.1875 C 4.476562 -1.351562 4.59375 -1.570312 4.59375 -1.84375 C 4.59375 -2.144531 4.484375 -2.390625 4.265625 -2.578125 C 4.046875 -2.773438 3.675781 -2.9375 3.15625 -3.0625 C 2.34375 -3.25 1.738281 -3.503906 1.34375 -3.828125 C 0.945312 -4.160156 0.75 -4.632812 0.75 -5.25 C 0.75 -5.894531 1 -6.410156 1.5 -6.796875 C 2 -7.179688 2.609375 -7.375 3.328125 -7.375 Z M 3.328125 -7.375 "/></g></g></g><g fill="#ffffff" fill-opacity="1"><g transform="translate(218.355694, 219.669859)"><g><path d="M 3.328125 -7.375 C 4.148438 -7.375 4.78125 -7.164062 5.21875 -6.75 C 5.65625 -6.34375 5.914062 -5.789062 6 -5.09375 L 4.515625 -5.09375 C 4.472656 -5.46875 4.347656 -5.757812 4.140625 -5.96875 C 3.929688 -6.1875 3.644531 -6.296875 3.28125 -6.296875 C 2.976562 -6.296875 2.734375 -6.222656 2.546875 -6.078125 C 2.359375 -5.929688 2.265625 -5.71875 2.265625 -5.4375 C 2.265625 -5.125 2.375 -4.878906 2.59375 -4.703125 C 2.820312 -4.535156 3.222656 -4.382812 3.796875 -4.25 C 4.585938 -4.070312 5.171875 -3.796875 5.546875 -3.421875 C 5.921875 -3.054688 6.109375 -2.578125 6.109375 -1.984375 C 6.109375 -1.328125 5.847656 -0.804688 5.328125 -0.421875 C 4.804688 -0.046875 4.175781 0.140625 3.4375 0.140625 C 2.550781 0.140625 1.847656 -0.0507812 1.328125 -0.4375 C 0.804688 -0.820312 0.507812 -1.390625 0.4375 -2.140625 L 1.921875 -2.140625 C 1.992188 -1.753906 2.164062 -1.457031 2.4375 -1.25 C 2.707031 -1.039062 3.03125 -0.9375 3.40625 -0.9375 C 3.75 -0.9375 4.03125 -1.019531 4.25 -1.1875 C 4.476562 -1.351562 4.59375 -1.570312 4.59375 -1.84375 C 4.59375 -2.144531 4.484375 -2.390625 4.265625 -2.578125 C 4.046875 -2.773438 3.675781 -2.9375 3.15625 -3.0625 C 2.34375 -3.25 1.738281 -3.503906 1.34375 -3.828125 C 0.945312 -4.160156 0.75 -4.632812 0.75 -5.25 C 0.75 -5.894531 1 -6.410156 1.5 -6.796875 C 2 -7.179688 2.609375 -7.375 3.328125 -7.375 Z M 3.328125 -7.375 "/></g></g></g><path stroke-linecap="butt" transform="matrix(0.749999, -0.0013117, 0.0013117, 0.749999, 67.338238, 214.794859)" fill="none" stroke-linejoin="miter" d="M -0.00135204 1.99748 L 104.42069 1.997816 " stroke="#ff3131" stroke-width="4" stroke-opacity="1" stroke-miterlimit="4"/><path stroke-linecap="butt" transform="matrix(0.74997, 0.00675565, -0.00675565, 0.74997, 229.342108, 214.305207)" fill="none" stroke-linejoin="miter" d="M -0.00063419 1.999395 L 104.425504 2.001481 " stroke="#ff3131" stroke-width="4" stroke-opacity="1" stroke-miterlimit="4"/></svg>